:FULLY-SPECIFIED
:FORCE-ALL-JOINTS-BE-3DOF
:DEGREES
713
root 5.47126 21.2293 7.36583 -82.5504 -74.8913 98.3196
lfemur -39.7595 -3.11997 14.7765
ltibia 90.61 0 0
lfoot 8.12706 -7.15404 0
ltoes 30.9654 0 0
rfemur -24.0924 -0.163126 3.93352
rtibia 62.2612 0 0
rfoot 16.567 -12.909 0
rtoes 28.3026 0 0
lowerback 5.0775 -2.26679 -2.14147
upperback -1.43945 -3.25561 -1.93498
thorax -4.36344 -1.59922 -0.596947
lowerneck -6.59869 -5.74877 -1.58219
upperneck 1.3454 -7.76745 5.15621
head 1.85322 -3.7789 1.61484
lclavicle -2.57125e-15 3.2902e-14 0
lhumerus 13.018 -22.7764 13.8335
lradius 58.0668 0 0
lwrist 25.3903 0 0
lhand -22.0631 -4.44828 0
lfingers 7.12502 0 0
lthumb 4.34785 25.4879 0
rclavicle -2.57125e-15 3.2902e-14 0
rhumerus -22.2322 -4.90829 -22.5332
rradius 100.41 0 0
rwrist -10.3351 0 0
rhand -29.2516 -36.7736 0
rfingers 7.12502 0 0
rthumb -2.59421 -786.708 0
714
root 5.48112 21.3794 7.58092 -109.41 -80.5933 125.484
lfemur -36.8727 -8.36971 11.8361
ltibia 78.7885 0 0
lfoot 7.79789 -8.21021 0
ltoes 30.4142 0 0
rfemur -28.6524 -0.822697 1.24638
rtibia 78.3993 0 0
rfoot 18.7431 -16.5302 0
rtoes 35.0842 0 0
lowerback 5.50267 -1.48108 -1.97192
upperback -1.38524 -2.20423 -1.76106
thorax -4.53482 -1.0751 -0.562388
lowerneck -6.73374 -6.07319 -1.9764
upperneck 0.519551 -8.13234 5.03554
head 1.62966 -3.98163 1.63296
lclavicle 4.62384e-15 3.24148e-14 0
lhumerus 6.16322 -21.6521 15.1854
lradius 51.8585 0 0
lwrist 24.0687 0 0
lhand -22.1245 -3.93417 0
lfingers 7.12502 0 0
lthumb 4.28854 26.0025 0
rclavicle 4.62384e-15 3.24148e-14 0
rhumerus -17.0096 -3.50175 -24.8871
rradius 99.8423 0 0
rwrist -10.1311 0 0
rhand -27.9934 -35.4599 0
rfingers 7.12502 0 0
rthumb -1.37926 -785.415 0
715
root 5.49097 21.5295 7.79601 -140.605 -87.2103 157.04
lfemur -33.5571 -14.4896 8.51967
ltibia 65.1241 0 0
lfoot 7.43438 -9.44215 0
ltoes 29.8338 0 0
rfemur -33.8349 -1.58686 -1.91882
rtibia 97.0122 0 0
rfoot 21.3635 -20.6634 0
rtoes 42.9309 0 0
lowerback 5.99658 -0.553404 -1.77502
upperback -1.3238 -0.963173 -1.56773
thorax -4.7355 -0.456483 -0.530585
lowerneck -6.88249 -6.45178 -2.43303
upperneck -0.433777 -8.5592 4.89979
head 1.37063 -4.21848 1.65523
lclavicle 1.2921e-14 3.18055e-14 0
lhumerus -1.77093 -20.2407 16.623
lradius 44.6521 0 0
lwrist 22.5382 0 0
lhand -22.2191 -3.35407 0
lfingers 7.12502 0 0
lthumb 4.19717 26.5843 0
rclavicle 1.2921e-14 3.18055e-14 0
rhumerus -10.8552 -1.84384 -27.5558
rradius 99.2563 0 0
rwrist -9.86977 0 0
rhand -26.5547 -33.9151 0
rfingers 7.12502 0 0
rthumb 0.0100137 -783.895 0
716
root 5.44711 21.4025 8.00895 -144.357 -87.1213 160.971
lfemur -32.9708 -15.2169 8.01015
ltibia 62.802 0 0
lfoot 7.47757 -9.68132 0
ltoes 29.6101 0 0
rfemur -34.2783 -2.10597 -2.39226
rtibia 99.528 0 0
rfoot 21.8536 -20.6363 0
rtoes 43.5761 0 0
lowerback 5.95191 -0.324551 -1.69548
upperback -1.34277 -0.653976 -1.54147
thorax -4.72017 -0.303607 -0.557916
lowerneck -6.92052 -6.50909 -2.46439
upperneck -0.557392 -8.62859 4.85341
head 1.33755 -4.25685 1.64343
lclavicle 1.4453e-14 3.03169e-14 0
lhumerus -3.4647 -20.0647 17.2061
lradius 43.9264 0 0
lwrist 22.3496 0 0
lhand -22.2183 -3.30103 0
lfingers 7.12502 0 0
lthumb 4.19795 26.6375 0
rclavicle 1.4453e-14 3.03169e-14 0
rhumerus -9.42607 -1.51818 -28.0348
rradius 99.066 0 0
rwrist -9.825 0 0
rhand -26.4651 -33.7151 0
rfingers 7.12502 0 0
rthumb 0.0964821 -783.697 0
717
root 5.40326 21.2755 8.22189 -147.242 -87.4725 163.95
lfemur -32.5251 -15.8698 7.71198
ltibia 61.1235 0 0
lfoot 7.59281 -9.90353 0
ltoes 29.5071 0 0
rfemur -34.6826 -2.35803 -2.80364
rtibia 101.468 0 0
rfoot 22.222 -20.7463 0
rtoes 44.1787 0 0
lowerback 5.94169 -0.181781 -1.63806
upperback -1.35475 -0.461272 -1.51649
thorax -4.72063 -0.208442 -0.570141
lowerneck -6.95031 -6.54547 -2.49439
upperneck -0.649661 -8.67152 4.81906
head 1.31307 -4.28125 1.63603
lclavicle 1.56537e-14 2.95188e-14 0
lhumerus -4.53548 -19.949 17.4076
lradius 43.2913 0 0
lwrist 22.227 0 0
lhand -22.2026 -3.24492 0
lfingers 7.12502 0 0
lthumb 4.21308 26.6936 0
rclavicle 1.56537e-14 2.95188e-14 0
rhumerus -8.43468 -1.4197 -28.2076
rradius 98.9699 0 0
rwrist -9.83022 0 0
rhand -26.401 -33.5996 0
rfingers 7.12502 0 0
rthumb 0.158392 -783.584 0
718
root 5.3594 21.1486 8.43484 -149.355 -88.1556 166.09
lfemur -32.1976 -16.4498 7.59144
ltibia 59.9863 0 0
lfoot 7.76967 -10.1113 0
ltoes 29.5011 0 0
rfemur -35.0414 -2.39762 -3.15978
rtibia 102.906 0 0
rfoot 22.4887 -20.9509 0
rtoes 44.7255 0 0
lowerback 5.95678 -0.109222 -1.59809
upperback -1.36163 -0.363533 -1.49284
thorax -4.7329 -0.160344 -0.570611
lowerneck -6.97344 -6.56416 -2.52194
upperneck -0.714552 -8.69225 4.79424
head 1.2961 -4.29392 1.6319
lclavicle 1.65771e-14 2.92613e-14 0
lhumerus -5.09388 -19.8856 17.3012
lradius 42.747 0 0
lwrist 22.1614 0 0
lhand -22.1743 -3.18766 0
lfingers 7.12502 0 0
lthumb 4.24047 26.7509 0
rclavicle 1.65771e-14 2.92613e-14 0
rhumerus -7.80121 -1.50865 -28.1269
rradius 98.95 0 0
rwrist -9.8768 0 0
rhand -26.3622 -33.5563 0
rfingers 7.12502 0 0
rthumb 0.195923 -783.543 0
719
root 5.31555 21.0216 8.64778 -150.791 -89.062 167.503
lfemur -31.9656 -16.9584 7.6148
ltibia 59.2879 0 0
lfoot 7.99773 -10.3071 0
ltoes 29.5687 0 0
rfemur -35.3486 -2.27932 -3.46753
rtibia 103.915 0 0
rfoot 22.6738 -21.2075 0
rtoes 45.2033 0 0
lowerback 5.98805 -0.0910056 -1.57088
upperback -1.3653 -0.339229 -1.47059
thorax -4.75301 -0.148671 -0.56268
lowerneck -6.99154 -6.56841 -2.54596
upperneck -0.756032 -8.69502 4.77647
head 1.28558 -4.29708 1.62995
lclavicle 1.72772e-14 2.93947e-14 0
lhumerus -5.25054 -19.8666 16.9605
lradius 42.2939 0 0
lwrist 22.1439 0 0
lhand -22.1354 -3.13121 0
lfingers 7.12502 0 0
lthumb 4.27801 26.8073 0
rclavicle 1.72772e-14 2.93947e-14 0
rhumerus -7.44585 -1.74529 -27.8454
rradius 98.9879 0 0
rwrist -9.95614 0 0
rhand -26.3484 -33.5729 0
rfingers 7.12502 0 0
rthumb 0.209257 -783.562 0
